# xmcd
#
# Track frame offsets: 
#        150
#        14344
#        29790
#        45593
#        60727
#        73472
#        85810
#        100360
#        116149
#        127580
#        141086
#        153497
#        165061
#        177222
#        187274
#        202699
#
# Disc length: 2879 seconds
#
# Revision: 0
# Processed by: cddbd v1.5.2PL0 Copyright (c) Steve Scherf et al.
# Submitted via: ExactAudioCopy v0.99pb5
#
DISCID=da0b3d10
DTITLE=CONRADO E ALEKSANDRO - AO VIVO
DYEAR=2011
DGENRE=SERTANEJO
TTITLE0=AFINAL
TTITLE1=CABEÇA TONTA
TTITLE2=FUSO HORÁRIO
TTITLE3=VELOCIDADE DA LUZ
TTITLE4=PROIBIDO PRA MENOR
TTITLE5=ESTRELA DO ROCK
TTITLE6=ABELHAS
TTITLE7=GRAVIDADE ZERO
TTITLE8=CARNAVAL DE AMOR
TTITLE9=DESUMANA
TTITLE10=INGRATA
TTITLE11=MULHER RUIM
TTITLE12=VOU TE ESQUECER
TTITLE13=CARTAZ
TTITLE14=CUBANITA
TTITLE15=CASO DE DESCASO
EXTD=
EXTT0=
EXTT1=
EXTT2=
EXTT3=
EXTT4=
EXTT5=
EXTT6=
EXTT7=
EXTT8=
EXTT9=
EXTT10=
EXTT11=
EXTT12=
EXTT13=
EXTT14=
EXTT15=
PLAYORDER=
